name Run_50002_GRF.mot
datacolumns 19
datarows 31
range 1.777 1.807
endheader
time	     ground_force_vx	     ground_force_vy	     ground_force_vz	     ground_force_px	     ground_force_py	     ground_force_pz	   l_ground_force_vx	   l_ground_force_vy	   l_ground_force_vz	   l_ground_force_px	   l_ground_force_py	   l_ground_force_pz	     ground_torque_x	     ground_torque_y	     ground_torque_z	   l_ground_torque_x	   l_ground_torque_y	   l_ground_torque_z	
1.777	          0.00000000	          0.00000000	          0.00000000	          0.00000000	          0.00000000	          0.00000000	          0.00000000	          0.00000000	          0.00000000	          0.00000000	          0.00000000	          0.00000000	          0.00000000	          0.00000000	          0.00000000	          0.00000000	          0.00000000	          0.00000000	
1.778	         -3.06323000	         11.11385500	         -6.26902200	          1.20338300	          0.00000000	         -0.27328400	          0.00000000	          0.00000000	          0.00000000	          0.00000000	          0.00000000	          0.00000000	          0.00000000	         -0.97584900	          0.00000000	          0.00000000	          0.00000000	          0.00000000	
1.779	         -3.45058800	         12.67477600	         -7.06047300	          1.20679500	          0.00000000	         -0.28064000	          0.00000000	          0.00000000	          0.00000000	          0.00000000	          0.00000000	          0.00000000	          0.00000000	         -0.69720800	          0.00000000	          0.00000000	          0.00000000	          0.00000000	
1.78	         -3.97014600	         14.49597600	         -7.91989200	          1.20870700	          0.00000000	         -0.28740100	          0.00000000	          0.00000000	          0.00000000	          0.00000000	          0.00000000	          0.00000000	          0.00000000	         -0.40017700	          0.00000000	          0.00000000	          0.00000000	          0.00000000	
1.781	         -4.63871600	         16.61838900	         -8.85025800	          1.20945600	          0.00000000	         -0.29357000	          0.00000000	          0.00000000	          0.00000000	          0.00000000	          0.00000000	          0.00000000	          0.00000000	         -0.08500700	          0.00000000	          0.00000000	          0.00000000	          0.00000000	
1.782	         -5.47365700	         19.08841900	         -9.85423800	          1.20932500	          0.00000000	         -0.29916300	          0.00000000	          0.00000000	          0.00000000	          0.00000000	          0.00000000	          0.00000000	         -0.00000000	          0.24796400	         -0.00000000	          0.00000000	          0.00000000	          0.00000000	
1.783	         -6.49287700	         21.95819500	        -10.93412200	          1.20854500	          0.00000000	         -0.30420000	          0.00000000	          0.00000000	          0.00000000	          0.00000000	          0.00000000	          0.00000000	         -0.00000000	          0.59831900	         -0.00000000	          0.00000000	          0.00000000	          0.00000000	
1.784	         -7.71484000	         25.28575300	        -12.09175900	          1.20730700	          0.00000000	         -0.30870600	          0.00000000	          0.00000000	          0.00000000	          0.00000000	          0.00000000	          0.00000000	         -0.00000000	          0.96555100	         -0.00000000	          0.00000000	          0.00000000	          0.00000000	
1.785	         -9.15854500	         29.13510100	        -13.32847800	          1.20576700	          0.00000000	         -0.31271300	          0.00000000	          0.00000000	          0.00000000	          0.00000000	          0.00000000	          0.00000000	         -0.00000000	          1.34907300	         -0.00000000	          0.00000000	          0.00000000	          0.00000000	
1.786	        -10.84346100	         33.57614900	        -14.64502200	          1.20404900	          0.00000000	         -0.31625300	          0.00000000	          0.00000000	          0.00000000	          0.00000000	          0.00000000	          0.00000000	         -0.00000000	          1.74821200	         -0.00000000	          0.00000000	          0.00000000	          0.00000000	
1.787	        -12.78940900	         38.68449000	        -16.04148100	          1.20225200	          0.00000000	         -0.31936100	          0.00000000	          0.00000000	          0.00000000	          0.00000000	          0.00000000	          0.00000000	         -0.00000000	          2.16221100	         -0.00000000	          0.00000000	          0.00000000	          0.00000000	
1.788	        -15.01633700	         44.54099300	        -17.51722300	          1.20045200	          0.00000000	         -0.32207400	          0.00000000	          0.00000000	          0.00000000	          0.00000000	          0.00000000	          0.00000000	         -0.00000000	          2.59023300	         -0.00000000	          0.00000000	          0.00000000	          0.00000000	
1.789	        -17.54400400	         51.23120500	        -19.07082700	          1.19870900	          0.00000000	         -0.32442800	          0.00000000	          0.00000000	          0.00000000	          0.00000000	          0.00000000	          0.00000000	         -0.00000000	          3.03135900	         -0.00000000	          0.00000000	          0.00000000	          0.00000000	
1.79	        -20.39152300	         58.84447900	        -20.70003500	          1.19706200	          0.00000000	         -0.32645900	          0.00000000	          0.00000000	          0.00000000	          0.00000000	          0.00000000	          0.00000000	         -0.00000000	          3.48459400	         -0.00000000	          0.00000000	          0.00000000	          0.00000000	
1.791	        -23.57675700	         67.47290000	        -22.40169000	          1.19554100	          0.00000000	         -0.32820000	          0.00000000	          0.00000000	          0.00000000	          0.00000000	          0.00000000	          0.00000000	         -0.00000000	          3.94886800	         -0.00000000	          0.00000000	          0.00000000	          0.00000000	
1.792	        -27.11557200	         77.20991500	        -24.17169200	          1.19415900	          0.00000000	         -0.32968500	          0.00000000	          0.00000000	          0.00000000	          0.00000000	          0.00000000	          0.00000000	         -0.00000000	          4.42303800	         -0.00000000	          0.00000000	          0.00000000	          0.00000000	
1.793	        -31.02092700	         88.14871200	        -26.00497100	          1.19292400	          0.00000000	         -0.33094400	          0.00000000	          0.00000000	          0.00000000	          0.00000000	          0.00000000	          0.00000000	         -0.00000000	          4.90589400	         -0.00000000	          0.00000000	          0.00000000	          0.00000000	
1.794	        -35.30182600	        100.38034100	        -27.89545100	          1.19183200	          0.00000000	         -0.33200400	          0.00000000	          0.00000000	          0.00000000	          0.00000000	          0.00000000	          0.00000000	         -0.00000000	          5.39616300	         -0.00000000	          0.00000000	          0.00000000	          0.00000000	
1.795	        -39.96215800	        113.99157000	        -29.83604200	          1.19087700	          0.00000000	         -0.33289300	          0.00000000	          0.00000000	          0.00000000	          0.00000000	          0.00000000	          0.00000000	         -0.00000000	          5.89251300	         -0.00000000	          0.00000000	          0.00000000	          0.00000000	
1.796	        -44.99943900	        129.06262200	        -31.81864000	          1.19004500	          0.00000000	         -0.33363200	          0.00000000	          0.00000000	          0.00000000	          0.00000000	          0.00000000	          0.00000000	         -0.00000000	          6.39355800	         -0.00000000	          0.00000000	          0.00000000	          0.00000000	
1.797	        -50.40353800	        145.66467300	        -33.83413700	          1.18932000	          0.00000000	         -0.33424400	          0.00000000	          0.00000000	          0.00000000	          0.00000000	          0.00000000	          0.00000000	         -0.00000000	          6.89786100	         -0.00000000	          0.00000000	          0.00000000	          0.00000000	
1.798	        -56.15543400	        163.85739100	        -35.87244800	          1.18868400	          0.00000000	         -0.33474600	          0.00000000	          0.00000000	          0.00000000	          0.00000000	          0.00000000	          0.00000000	         -0.00000000	          7.40394700	         -0.00000000	          0.00000000	          0.00000000	          0.00000000	
1.799	        -62.22608200	        183.68644700	        -37.92257300	          1.18811500	          0.00000000	         -0.33515600	          0.00000000	          0.00000000	          0.00000000	          0.00000000	          0.00000000	          0.00000000	         -0.00000000	          7.91030200	         -0.00000000	          0.00000000	          0.00000000	          0.00000000	
1.8	        -68.57546200	        205.18112200	        -39.97263700	          1.18759500	          0.00000000	         -0.33548800	          0.00000000	          0.00000000	          0.00000000	          0.00000000	          0.00000000	          0.00000000	         -0.00000000	          8.41538200	         -0.00000000	          0.00000000	          0.00000000	          0.00000000	
1.801	        -75.15190100	        228.35220300	        -42.00997500	          1.18710100	          0.00000000	         -0.33575600	          0.00000000	          0.00000000	          0.00000000	          0.00000000	          0.00000000	          0.00000000	         -0.00000000	          8.91762300	         -0.00000000	          0.00000000	          0.00000000	          0.00000000	
1.802	        -81.89180800	        253.19032300	        -44.02123600	          1.18661300	          0.00000000	         -0.33597100	          0.00000000	          0.00000000	          0.00000000	          0.00000000	          0.00000000	          0.00000000	         -0.00000000	          9.41544100	         -0.00000000	          0.00000000	          0.00000000	          0.00000000	
1.803	        -88.71982600	        279.66455100	        -45.99248900	          1.18611000	          0.00000000	         -0.33614400	          0.00000000	          0.00000000	          0.00000000	          0.00000000	          0.00000000	          0.00000000	         -0.00000000	          9.90724600	         -0.00000000	          0.00000000	          0.00000000	          0.00000000	
1.804	        -95.54953800	        307.72183200	        -47.90935100	          1.18557400	          0.00000000	         -0.33628300	          0.00000000	          0.00000000	          0.00000000	          0.00000000	          0.00000000	          0.00000000	         -0.00000000	         10.39144800	         -0.00000000	          0.00000000	          0.00000000	          0.00000000	
1.805	       -102.28473700	        337.28692600	        -49.75712200	          1.18498300	          0.00000000	         -0.33639700	          0.00000000	          0.00000000	          0.00000000	          0.00000000	          0.00000000	          0.00000000	         -0.00000000	         10.86646100	         -0.00000000	          0.00000000	          0.00000000	          0.00000000	
1.806	       -108.82139600	        368.26306200	        -51.52093900	          1.18432100	          0.00000000	         -0.33649400	          0.00000000	          0.00000000	          0.00000000	          0.00000000	          0.00000000	          0.00000000	         -0.00000000	         11.33071500	         -0.00000000	          0.00000000	          0.00000000	          0.00000000	
1.807	       -115.05015600	        400.53344700	        -53.18593600	          1.18356800	          0.00000000	         -0.33657900	          0.00000000	          0.00000000	          0.00000000	          0.00000000	          0.00000000	          0.00000000	         -0.00000000	         11.78266000	         -0.00000000	          0.00000000	          0.00000000	          0.00000000	
